# This file uses centimeters as units for non-parametric coordinates.

mtllib PowerUpSpeed.mtl
g default
v -0.043946 0.039277 0.432207
v 0.043946 0.039277 0.432207
v -0.043946 0.408298 0.197556
v 0.043946 0.408298 0.197556
v -0.043946 0.498102 -0.495920
v 0.043946 0.498102 -0.495920
v -0.043946 0.165293 -0.077315
v 0.043946 0.165293 -0.077315
v -0.043946 0.190411 -0.321642
v 0.043946 0.190411 -0.321642
v 0.043946 0.059712 0.206613
v -0.043946 0.059712 0.206613
v -0.043946 -0.088167 0.048274
v 0.043946 -0.088167 0.048274
v 0.043946 -0.157985 0.374480
v -0.043946 -0.157985 0.374480
v -0.043946 -0.069139 -0.072748
v 0.043946 -0.069139 -0.072748
v 0.043946 -0.227532 0.424844
v -0.043946 -0.227532 0.424844
v -0.043946 -0.179739 0.072554
v 0.043946 -0.179739 0.072554
v 0.043946 -0.207519 0.312101
v -0.043946 -0.207519 0.312101
v -0.043946 -0.393846 0.352489
v 0.043946 -0.393846 0.352489
v 0.043946 -0.497247 0.495920
v -0.043946 -0.497247 0.495920
vt 0.375000 0.000000
vt 0.625000 0.000000
vt 0.375000 0.250000
vt 0.625000 0.250000
vt 0.375000 0.500000
vt 0.625000 0.500000
vt 0.375000 0.750000
vt 0.625000 0.750000
vt 0.375000 1.000000
vt 0.625000 1.000000
vt 0.875000 0.000000
vt 0.875000 0.250000
vt 0.125000 0.000000
vt 0.125000 0.250000
vt 0.375000 0.750000
vt 0.625000 0.750000
vt 0.625000 1.000000
vt 0.375000 1.000000
vt 0.375000 0.750000
vt 0.625000 0.750000
vt 0.625000 1.000000
vt 0.375000 1.000000
vt 0.375000 0.750000
vt 0.625000 0.750000
vt 0.625000 1.000000
vt 0.375000 1.000000
vt 0.375000 0.750000
vt 0.625000 0.750000
vt 0.625000 1.000000
vt 0.375000 1.000000
vt 0.375000 0.750000
vt 0.625000 0.750000
vt 0.625000 1.000000
vt 0.375000 1.000000
vn 0.000000 0.536582 0.843848
vn 0.000000 0.536582 0.843848
vn 0.000000 0.536582 0.843848
vn 0.000000 0.536582 0.843848
vn 0.000000 0.991719 0.128427
vn 0.000000 0.991719 0.128427
vn 0.000000 0.991719 0.128427
vn 0.000000 0.991719 0.128427
vn 0.000000 -0.782758 -0.622326
vn 0.000000 -0.782758 -0.622326
vn 0.000000 -0.782758 -0.622326
vn 0.000000 -0.782758 -0.622326
vn 0.000000 -0.811184 -0.584791
vn 0.000000 -0.811184 -0.584791
vn 0.000000 -0.811184 -0.584791
vn 0.000000 -0.811184 -0.584791
vn 1.000000 0.000000 0.000000
vn 1.000000 0.000000 0.000000
vn 1.000000 0.000000 0.000000
vn 1.000000 0.000000 0.000000
vn -1.000000 0.000000 0.000000
vn -1.000000 0.000000 0.000000
vn -1.000000 0.000000 0.000000
vn -1.000000 0.000000 0.000000
vn 0.000000 0.994757 0.102265
vn 0.000000 0.994757 0.102265
vn 0.000000 0.994757 0.102265
vn 0.000000 0.994757 0.102265
vn 1.000000 0.000000 0.000000
vn 1.000000 0.000000 0.000000
vn 1.000000 0.000000 0.000000
vn 1.000000 0.000000 0.000000
vn 0.000000 -0.995923 -0.090211
vn 0.000000 -0.995923 -0.090211
vn 0.000000 -0.995923 -0.090211
vn 0.000000 -0.995923 -0.090211
vn -1.000000 0.000000 0.000000
vn -1.000000 0.000000 0.000000
vn -1.000000 0.000000 0.000000
vn -1.000000 0.000000 0.000000
vn 0.000000 -0.798815 -0.601577
vn 0.000000 -0.798815 -0.601577
vn 0.000000 -0.798815 -0.601577
vn 0.000000 -0.798815 -0.601577
vn 1.000000 0.000000 0.000000
vn 1.000000 0.000000 0.000000
vn 1.000000 0.000000 0.000000
vn 1.000000 0.000000 0.000000
vn 0.000000 0.610645 0.791905
vn 0.000000 0.610645 0.791905
vn 0.000000 0.610645 0.791905
vn 0.000000 0.610645 0.791905
vn -1.000000 0.000000 0.000000
vn -1.000000 0.000000 0.000000
vn -1.000000 0.000000 0.000000
vn -1.000000 0.000000 0.000000
vn 0.000000 0.987863 0.155325
vn 0.000000 0.987863 0.155325
vn 0.000000 0.987863 0.155325
vn 0.000000 0.987863 0.155325
vn 1.000000 -0.000000 0.000000
vn 1.000000 -0.000000 0.000000
vn 1.000000 -0.000000 0.000000
vn 1.000000 -0.000000 0.000000
vn 0.000000 0.586527 0.809930
vn 0.000000 0.586527 0.809930
vn 0.000000 0.586527 0.809930
vn 0.000000 0.586527 0.809930
vn -1.000000 0.000000 0.000000
vn -1.000000 0.000000 0.000000
vn -1.000000 0.000000 0.000000
vn -1.000000 0.000000 0.000000
vn 0.000000 -0.795713 -0.605674
vn 0.000000 -0.795713 -0.605674
vn 0.000000 -0.795713 -0.605674
vn 0.000000 -0.795713 -0.605674
vn 1.000000 0.000000 0.000000
vn 1.000000 0.000000 0.000000
vn 1.000000 0.000000 0.000000
vn 1.000000 0.000000 0.000000
vn 0.000000 -0.984607 -0.174784
vn 0.000000 -0.984607 -0.174784
vn 0.000000 -0.984607 -0.174784
vn 0.000000 -0.984607 -0.174784
vn -1.000000 0.000000 0.000000
vn -1.000000 0.000000 0.000000
vn -1.000000 0.000000 0.000000
vn -1.000000 0.000000 0.000000
vn 0.000000 -0.794304 -0.607521
vn 0.000000 -0.794304 -0.607521
vn 0.000000 -0.794304 -0.607521
vn 0.000000 -0.794304 -0.607521
vn 1.000000 0.000000 0.000000
vn 1.000000 0.000000 0.000000
vn 1.000000 0.000000 0.000000
vn 1.000000 0.000000 0.000000
vn 0.000000 0.535727 0.844391
vn 0.000000 0.535727 0.844391
vn 0.000000 0.535727 0.844391
vn 0.000000 0.535727 0.844391
vn -1.000000 0.000000 0.000000
vn -1.000000 0.000000 0.000000
vn -1.000000 0.000000 0.000000
vn -1.000000 0.000000 0.000000
s off
g pCube1
usemtl initialShadingGroup
f 1/1/1 2/2/2 4/4/3 3/3/4
f 3/3/5 4/4/6 6/6/7 5/5/8
f 5/5/9 6/6/10 8/8/11 7/7/12
f 25/31/13 26/32/14 27/33/15 28/34/16
f 2/2/17 8/11/18 6/12/19 4/4/20
f 7/13/21 1/1/22 3/3/23 5/14/24
f 7/7/25 8/8/26 10/16/27 9/15/28
f 8/8/29 2/10/30 11/17/31 10/16/32
f 2/10/33 1/9/34 12/18/35 11/17/36
f 1/9/37 7/7/38 9/15/39 12/18/40
f 9/15/41 10/16/42 14/20/43 13/19/44
f 10/16/45 11/17/46 15/21/47 14/20/48
f 11/17/49 12/18/50 16/22/51 15/21/52
f 12/18/53 9/15/54 13/19/55 16/22/56
f 13/19/57 14/20/58 18/24/59 17/23/60
f 14/20/61 15/21/62 19/25/63 18/24/64
f 15/21/65 16/22/66 20/26/67 19/25/68
f 16/22/69 13/19/70 17/23/71 20/26/72
f 17/23/73 18/24/74 22/28/75 21/27/76
f 18/24/77 19/25/78 23/29/79 22/28/80
f 19/25/81 20/26/82 24/30/83 23/29/84
f 20/26/85 17/23/86 21/27/87 24/30/88
f 21/27/89 22/28/90 26/32/91 25/31/92
f 22/28/93 23/29/94 27/33/95 26/32/96
f 23/29/97 24/30/98 28/34/99 27/33/100
f 24/30/101 21/27/102 25/31/103 28/34/104
