# This file uses centimeters as units for non-parametric coordinates.

mtllib Wood_Splinter.mtl
g default
v -0.500000 -0.034693 0.034693
v 0.500000 0.000000 0.000000
v -0.500000 0.034693 0.034693
v -0.500000 0.034693 -0.034693
v -0.500000 -0.034693 -0.034693
vt 0.375000 0.000000
vt 0.696429 0.392857
vt 0.375000 0.250000
vt 0.375000 0.500000
vt 0.375000 0.750000
vt 0.375000 1.000000
vt 0.125000 0.000000
vt 0.125000 0.250000
vn 0.034673 0.000000 0.999399
vn 0.034673 0.000000 0.999399
vn 0.034673 0.000000 0.999399
vn 0.034673 0.999399 0.000000
vn 0.034673 0.999399 0.000000
vn 0.034673 0.999399 0.000000
vn 0.034673 0.000000 -0.999399
vn 0.034673 0.000000 -0.999399
vn 0.034673 0.000000 -0.999399
vn 0.034673 -0.999399 0.000000
vn 0.034673 -0.999399 0.000000
vn 0.034673 -0.999399 0.000000
vn -1.000000 0.000000 0.000000
vn -1.000000 0.000000 0.000000
vn -1.000000 0.000000 0.000000
vn -1.000000 0.000000 0.000000
s off
g pCube1
usemtl initialShadingGroup
f 1/1/1 2/2/2 3/3/3
f 3/3/4 2/2/5 4/4/6
f 4/4/7 2/2/8 5/5/9
f 5/5/10 2/2/11 1/6/12
f 5/7/13 1/1/14 3/3/15 4/8/16
