# This file uses centimeters as units for non-parametric coordinates.

mtllib Compass.mtl
g default
v -0.125000 -0.125000 -0.125000
v -0.125000 -0.125000 0.125000
v -0.125000 0.125000 -0.125000
v -0.125000 0.125000 0.125000
v -0.500000 0.000000 0.000000
vt 0.375000 0.000000
vt 0.625000 0.000000
vt 0.375000 0.250000
vt 0.625000 0.250000
vt 0.500000 0.125000
vt 0.000000 0.000000
vt 1.000000 0.000000
vt 1.000000 1.000000
vt 0.000000 1.000000
vn -0.316228 -0.948683 0.000000
vn -0.316228 -0.948683 0.000000
vn -0.316228 -0.948683 0.000000
vn -0.316228 0.000000 0.948683
vn -0.316228 0.000000 0.948683
vn -0.316228 0.000000 0.948683
vn -0.316228 0.948683 0.000000
vn -0.316228 0.948683 0.000000
vn -0.316228 0.948683 0.000000
vn -0.316228 0.000000 -0.948683
vn -0.316228 0.000000 -0.948683
vn -0.316228 0.000000 -0.948683
vn 1.000000 0.000000 -0.000000
vn 1.000000 0.000000 -0.000000
vn 1.000000 0.000000 -0.000000
vn 1.000000 0.000000 -0.000000
s off
g pCube2
usemtl initialShadingGroup
f 1/1/1 2/2/2 5/5/3
f 2/2/4 4/4/5 5/5/6
f 4/4/7 3/3/8 5/5/9
f 3/3/10 1/1/11 5/5/12
f 3/6/13 4/7/14 2/8/15 1/9/16
g default
v -0.125000 -0.125000 0.125000
v 0.125000 -0.125000 0.125000
v -0.125000 0.125000 0.125000
v 0.125000 0.125000 0.125000
v -0.125000 0.125000 -0.125000
v 0.125000 0.125000 -0.125000
v -0.125000 -0.125000 -0.125000
v 0.125000 -0.125000 -0.125000
vt 0.375000 0.000000
vt 0.625000 0.000000
vt 0.375000 0.250000
vt 0.625000 0.250000
vt 0.375000 0.500000
vt 0.625000 0.500000
vt 0.375000 0.750000
vt 0.625000 0.750000
vt 0.375000 1.000000
vt 0.625000 1.000000
vt 0.875000 0.000000
vt 0.875000 0.250000
vt 0.125000 0.000000
vt 0.125000 0.250000
vn 0.000000 0.000000 1.000000
vn 0.000000 0.000000 1.000000
vn 0.000000 0.000000 1.000000
vn 0.000000 0.000000 1.000000
vn 0.000000 1.000000 0.000000
vn 0.000000 1.000000 0.000000
vn 0.000000 1.000000 0.000000
vn 0.000000 1.000000 0.000000
vn 0.000000 0.000000 -1.000000
vn 0.000000 0.000000 -1.000000
vn 0.000000 0.000000 -1.000000
vn 0.000000 0.000000 -1.000000
vn 0.000000 -1.000000 0.000000
vn 0.000000 -1.000000 0.000000
vn 0.000000 -1.000000 0.000000
vn 0.000000 -1.000000 0.000000
vn 1.000000 0.000000 0.000000
vn 1.000000 0.000000 0.000000
vn 1.000000 0.000000 0.000000
vn 1.000000 0.000000 0.000000
vn -1.000000 0.000000 0.000000
vn -1.000000 0.000000 0.000000
vn -1.000000 0.000000 0.000000
vn -1.000000 0.000000 0.000000
s off
g pCube3
usemtl initialShadingGroup
f 6/10/17 7/11/18 9/13/19 8/12/20
f 8/12/21 9/13/22 11/15/23 10/14/24
f 10/14/25 11/15/26 13/17/27 12/16/28
f 12/16/29 13/17/30 7/19/31 6/18/32
f 7/11/33 13/20/34 11/21/35 9/13/36
f 12/22/37 6/10/38 8/12/39 10/23/40
g default
v 0.125000 0.125000 0.125000
v 0.125000 0.125000 -0.125000
v -0.125000 0.125000 0.125000
v -0.125000 0.125000 -0.125000
v 0.000000 0.500000 0.000000
vt 0.375000 0.000000
vt 0.625000 0.000000
vt 0.375000 0.250000
vt 0.625000 0.250000
vt 0.500000 0.125000
vt 0.000000 0.000000
vt 1.000000 0.000000
vt 1.000000 1.000000
vt 0.000000 1.000000
vn 0.948683 0.316228 0.000000
vn 0.948683 0.316228 0.000000
vn 0.948683 0.316228 0.000000
vn 0.000000 0.316228 -0.948683
vn 0.000000 0.316228 -0.948683
vn 0.000000 0.316228 -0.948683
vn -0.948683 0.316228 0.000000
vn -0.948683 0.316228 0.000000
vn -0.948683 0.316228 0.000000
vn 0.000000 0.316228 0.948683
vn 0.000000 0.316228 0.948683
vn 0.000000 0.316228 0.948683
vn -0.000000 -1.000000 -0.000000
vn -0.000000 -1.000000 -0.000000
vn -0.000000 -1.000000 -0.000000
vn -0.000000 -1.000000 -0.000000
s off
g pCube5
usemtl initialShadingGroup
f 14/24/41 15/25/42 18/28/43
f 15/25/44 17/27/45 18/28/46
f 17/27/47 16/26/48 18/28/49
f 16/26/50 14/24/51 18/28/52
f 16/29/53 17/30/54 15/31/55 14/32/56
g default
v -0.125000 -0.125000 0.125000
v 0.125000 -0.125000 0.125000
v -0.125000 0.125000 0.125000
v 0.125000 0.125000 0.125000
v 0.000000 0.000000 0.500000
vt 0.375000 0.000000
vt 0.625000 0.000000
vt 0.375000 0.250000
vt 0.625000 0.250000
vt 0.500000 0.125000
vt 0.000000 0.000000
vt 1.000000 0.000000
vt 1.000000 1.000000
vt 0.000000 1.000000
vn 0.000000 -0.948683 0.316228
vn 0.000000 -0.948683 0.316228
vn 0.000000 -0.948683 0.316228
vn 0.948683 0.000000 0.316228
vn 0.948683 0.000000 0.316228
vn 0.948683 0.000000 0.316228
vn 0.000000 0.948683 0.316228
vn 0.000000 0.948683 0.316228
vn 0.000000 0.948683 0.316228
vn -0.948683 0.000000 0.316228
vn -0.948683 0.000000 0.316228
vn -0.948683 0.000000 0.316228
vn 0.000000 0.000000 -1.000000
vn 0.000000 0.000000 -1.000000
vn 0.000000 0.000000 -1.000000
vn 0.000000 0.000000 -1.000000
s off
g pCube4
usemtl initialShadingGroup
f 19/33/57 20/34/58 23/37/59
f 20/34/60 22/36/61 23/37/62
f 22/36/63 21/35/64 23/37/65
f 21/35/66 19/33/67 23/37/68
f 21/38/69 22/39/70 20/40/71 19/41/72
