# This file uses centimeters as units for non-parametric coordinates.

mtllib PowerUpFrame.mtl
g default
v 0.000000 0.736143 -0.129801
v 0.000000 0.702420 -0.255659
v 0.000000 0.647354 -0.373749
v 0.000000 0.572618 -0.480483
v 0.000000 0.480484 -0.572617
v 0.000000 0.373750 -0.647353
v 0.000000 0.255660 -0.702420
v 0.000000 0.129802 -0.736143
v 0.000000 0.000000 -0.747500
v -0.000000 -0.129802 -0.736143
v -0.000000 -0.255660 -0.702420
v -0.000000 -0.373749 -0.647354
v -0.000000 -0.480483 -0.572618
v -0.000000 -0.572618 -0.480484
v -0.000000 -0.647354 -0.373750
v -0.000000 -0.702420 -0.255660
v -0.000000 -0.736143 -0.129802
v -0.000000 -0.747500 -0.000000
v -0.000000 -0.736144 0.129802
v -0.000000 -0.702420 0.255660
v -0.000000 -0.647354 0.373750
v -0.000000 -0.572618 0.480483
v -0.000000 -0.480484 0.572618
v -0.000000 -0.373750 0.647354
v -0.000000 -0.255660 0.702420
v -0.000000 -0.129802 0.736144
v -0.000000 -0.000000 0.747500
v 0.000000 0.129802 0.736144
v 0.000000 0.255660 0.702420
v 0.000000 0.373750 0.647354
v 0.000000 0.480484 0.572618
v 0.000000 0.572618 0.480484
v 0.000000 0.647354 0.373750
v 0.000000 0.702420 0.255660
v 0.000000 0.736144 0.129802
v 0.000000 0.747500 0.000000
v -0.028146 0.784153 -0.138267
v -0.028146 0.748230 -0.272333
v -0.028146 0.689573 -0.398124
v -0.028146 0.609963 -0.511819
v -0.028146 0.511820 -0.609962
v -0.028146 0.398125 -0.689572
v -0.028146 0.272334 -0.748230
v -0.028146 0.138268 -0.784153
v -0.028146 0.000000 -0.796250
v -0.028146 -0.138267 -0.784153
v -0.028146 -0.272333 -0.748230
v -0.028146 -0.398124 -0.689573
v -0.028146 -0.511819 -0.609963
v -0.028146 -0.609962 -0.511820
v -0.028146 -0.689572 -0.398125
v -0.028146 -0.748230 -0.272334
v -0.028146 -0.784153 -0.138268
v -0.028146 -0.796250 -0.000000
v -0.028146 -0.784153 0.138267
v -0.028146 -0.748230 0.272333
v -0.028146 -0.689573 0.398125
v -0.028146 -0.609963 0.511819
v -0.028146 -0.511820 0.609963
v -0.028146 -0.398125 0.689572
v -0.028146 -0.272334 0.748230
v -0.028146 -0.138267 0.784153
v -0.028146 -0.000000 0.796250
v -0.028146 0.138267 0.784153
v -0.028146 0.272333 0.748230
v -0.028146 0.398125 0.689573
v -0.028146 0.511820 0.609963
v -0.028146 0.609963 0.511820
v -0.028146 0.689573 0.398125
v -0.028146 0.748230 0.272334
v -0.028146 0.784153 0.138267
v -0.028146 0.796250 -0.000000
v 0.028146 0.784153 -0.138267
v 0.028146 0.748230 -0.272333
v 0.028146 0.689573 -0.398124
v 0.028146 0.609963 -0.511819
v 0.028146 0.511820 -0.609962
v 0.028146 0.398125 -0.689572
v 0.028146 0.272334 -0.748230
v 0.028146 0.138268 -0.784153
v 0.028146 0.000000 -0.796250
v 0.028146 -0.138267 -0.784153
v 0.028146 -0.272333 -0.748230
v 0.028146 -0.398124 -0.689573
v 0.028146 -0.511819 -0.609963
v 0.028146 -0.609962 -0.511820
v 0.028146 -0.689572 -0.398125
v 0.028146 -0.748230 -0.272334
v 0.028146 -0.784153 -0.138268
v 0.028146 -0.796250 -0.000000
v 0.028146 -0.784153 0.138267
v 0.028146 -0.748230 0.272333
v 0.028146 -0.689573 0.398125
v 0.028146 -0.609963 0.511819
v 0.028146 -0.511820 0.609963
v 0.028146 -0.398125 0.689572
v 0.028146 -0.272334 0.748230
v 0.028146 -0.138267 0.784153
v 0.028146 -0.000000 0.796250
v 0.028146 0.138267 0.784153
v 0.028146 0.272333 0.748230
v 0.028146 0.398125 0.689573
v 0.028146 0.511820 0.609963
v 0.028146 0.609963 0.511820
v 0.028146 0.689573 0.398125
v 0.028146 0.748230 0.272334
v 0.028146 0.784153 0.138267
v 0.028146 0.796250 0.000000
vt 0.000000 1.000000
vt 0.027778 1.000000
vt 0.055556 1.000000
vt 0.083333 1.000000
vt 0.111111 1.000000
vt 0.138889 1.000000
vt 0.166667 1.000000
vt 0.194444 1.000000
vt 0.222222 1.000000
vt 0.250000 1.000000
vt 0.277778 1.000000
vt 0.305556 1.000000
vt 0.333333 1.000000
vt 0.361111 1.000000
vt 0.388889 1.000000
vt 0.416667 1.000000
vt 0.444445 1.000000
vt 0.472222 1.000000
vt 0.500000 1.000000
vt 0.527778 1.000000
vt 0.555556 1.000000
vt 0.583333 1.000000
vt 0.611111 1.000000
vt 0.638889 1.000000
vt 0.666667 1.000000
vt 0.694445 1.000000
vt 0.722222 1.000000
vt 0.750000 1.000000
vt 0.777778 1.000000
vt 0.805556 1.000000
vt 0.833334 1.000000
vt 0.861111 1.000000
vt 0.888889 1.000000
vt 0.916667 1.000000
vt 0.944445 1.000000
vt 0.972223 1.000000
vt 1.000000 1.000000
vt 0.000000 0.666667
vt 0.027778 0.666667
vt 0.055556 0.666667
vt 0.083333 0.666667
vt 0.111111 0.666667
vt 0.138889 0.666667
vt 0.166667 0.666667
vt 0.194444 0.666667
vt 0.222222 0.666667
vt 0.250000 0.666667
vt 0.277778 0.666667
vt 0.305556 0.666667
vt 0.333333 0.666667
vt 0.361111 0.666667
vt 0.388889 0.666667
vt 0.416667 0.666667
vt 0.444445 0.666667
vt 0.472222 0.666667
vt 0.500000 0.666667
vt 0.527778 0.666667
vt 0.555556 0.666667
vt 0.583333 0.666667
vt 0.611111 0.666667
vt 0.638889 0.666667
vt 0.666667 0.666667
vt 0.694445 0.666667
vt 0.722222 0.666667
vt 0.750000 0.666667
vt 0.777778 0.666667
vt 0.805556 0.666667
vt 0.833334 0.666667
vt 0.861111 0.666667
vt 0.888889 0.666667
vt 0.916667 0.666667
vt 0.944445 0.666667
vt 0.972223 0.666667
vt 1.000000 0.666667
vt 0.000000 0.333333
vt 0.027778 0.333333
vt 0.055556 0.333333
vt 0.083333 0.333333
vt 0.111111 0.333333
vt 0.138889 0.333333
vt 0.166667 0.333333
vt 0.194444 0.333333
vt 0.222222 0.333333
vt 0.250000 0.333333
vt 0.277778 0.333333
vt 0.305556 0.333333
vt 0.333333 0.333333
vt 0.361111 0.333333
vt 0.388889 0.333333
vt 0.416667 0.333333
vt 0.444445 0.333333
vt 0.472222 0.333333
vt 0.500000 0.333333
vt 0.527778 0.333333
vt 0.555556 0.333333
vt 0.583333 0.333333
vt 0.611111 0.333333
vt 0.638889 0.333333
vt 0.666667 0.333333
vt 0.694445 0.333333
vt 0.722222 0.333333
vt 0.750000 0.333333
vt 0.777778 0.333333
vt 0.805556 0.333333
vt 0.833334 0.333333
vt 0.861111 0.333333
vt 0.888889 0.333333
vt 0.916667 0.333333
vt 0.944445 0.333333
vt 0.972223 0.333333
vt 1.000000 0.333333
vt 0.000000 -0.000000
vt 0.027778 -0.000000
vt 0.055556 -0.000000
vt 0.083333 -0.000000
vt 0.111111 -0.000000
vt 0.138889 -0.000000
vt 0.166667 -0.000000
vt 0.194444 -0.000000
vt 0.222222 -0.000000
vt 0.250000 -0.000000
vt 0.277778 -0.000000
vt 0.305556 -0.000000
vt 0.333333 -0.000000
vt 0.361111 -0.000000
vt 0.388889 -0.000000
vt 0.416667 -0.000000
vt 0.444445 -0.000000
vt 0.472222 -0.000000
vt 0.500000 -0.000000
vt 0.527778 -0.000000
vt 0.555556 -0.000000
vt 0.583333 -0.000000
vt 0.611111 -0.000000
vt 0.638889 -0.000000
vt 0.666667 -0.000000
vt 0.694445 -0.000000
vt 0.722222 -0.000000
vt 0.750000 -0.000000
vt 0.777778 -0.000000
vt 0.805556 -0.000000
vt 0.833334 -0.000000
vt 0.861111 -0.000000
vt 0.888889 -0.000000
vt 0.916667 -0.000000
vt 0.944445 -0.000000
vt 0.972223 -0.000000
vt 1.000000 -0.000000
vn -0.866025 -0.469847 0.171010
vn -0.866025 -0.492404 0.086825
vn -0.866025 -0.492404 0.086825
vn -0.866025 -0.469847 0.171010
vn -0.866025 -0.433013 0.250000
vn -0.866025 -0.433013 0.250000
vn -0.866025 -0.383022 0.321394
vn -0.866025 -0.383022 0.321394
vn -0.866025 -0.321394 0.383022
vn -0.866025 -0.321394 0.383022
vn -0.866025 -0.250001 0.433013
vn -0.866025 -0.250001 0.433013
vn -0.866025 -0.171011 0.469846
vn -0.866025 -0.171011 0.469846
vn -0.866025 -0.086824 0.492404
vn -0.866025 -0.086824 0.492404
vn -0.866025 -0.000000 0.500000
vn -0.866025 -0.000000 0.500000
vn -0.866025 0.086824 0.492404
vn -0.866025 0.086824 0.492404
vn -0.866025 0.171010 0.469847
vn -0.866025 0.171010 0.469847
vn -0.866025 0.250000 0.433013
vn -0.866025 0.250000 0.433013
vn -0.866025 0.321394 0.383023
vn -0.866025 0.321394 0.383023
vn -0.866025 0.383022 0.321394
vn -0.866025 0.383022 0.321394
vn -0.866025 0.433013 0.250000
vn -0.866025 0.433013 0.250000
vn -0.866025 0.469847 0.171010
vn -0.866025 0.469846 0.171010
vn -0.866025 0.492404 0.086824
vn -0.866025 0.492404 0.086824
vn -0.866025 0.500000 0.000000
vn -0.866025 0.500000 0.000000
vn -0.866026 0.492404 -0.086824
vn -0.866025 0.492404 -0.086824
vn -0.866025 0.469847 -0.171010
vn -0.866025 0.469847 -0.171010
vn -0.866025 0.433013 -0.250000
vn -0.866025 0.433013 -0.250000
vn -0.866025 0.383022 -0.321394
vn -0.866025 0.383022 -0.321394
vn -0.866025 0.321394 -0.383022
vn -0.866025 0.321394 -0.383022
vn -0.866025 0.250000 -0.433013
vn -0.866025 0.250000 -0.433013
vn -0.866025 0.171010 -0.469846
vn -0.866025 0.171010 -0.469846
vn -0.866025 0.086824 -0.492404
vn -0.866025 0.086824 -0.492404
vn -0.866025 0.000000 -0.500000
vn -0.866025 0.000000 -0.500000
vn -0.866025 -0.086824 -0.492404
vn -0.866025 -0.086824 -0.492404
vn -0.866025 -0.171010 -0.469846
vn -0.866025 -0.171010 -0.469846
vn -0.866026 -0.250000 -0.433013
vn -0.866026 -0.250000 -0.433013
vn -0.866025 -0.321394 -0.383022
vn -0.866025 -0.321394 -0.383022
vn -0.866026 -0.383022 -0.321394
vn -0.866026 -0.383022 -0.321394
vn -0.866026 -0.433012 -0.250000
vn -0.866026 -0.433012 -0.250000
vn -0.866025 -0.469846 -0.171010
vn -0.866026 -0.469846 -0.171010
vn -0.866025 -0.492404 -0.086824
vn -0.866025 -0.492404 -0.086824
vn -0.866025 -0.500000 0.000001
vn -0.866025 -0.500000 0.000001
vn 0.000000 0.939693 -0.342019
vn 0.000000 0.984808 -0.173650
vn 0.000000 0.984808 -0.173650
vn 0.000000 0.939693 -0.342019
vn 0.000000 0.866026 -0.499999
vn 0.000000 0.866026 -0.499999
vn 0.000000 0.766045 -0.642787
vn 0.000000 0.766045 -0.642787
vn 0.000000 0.642788 -0.766044
vn 0.000000 0.642788 -0.766044
vn 0.000000 0.500001 -0.866025
vn 0.000000 0.500001 -0.866025
vn 0.000000 0.342021 -0.939692
vn 0.000000 0.342021 -0.939692
vn 0.000000 0.173649 -0.984808
vn 0.000000 0.173649 -0.984808
vn -0.000000 0.000001 -1.000000
vn -0.000000 0.000001 -1.000000
vn -0.000000 -0.173647 -0.984808
vn -0.000000 -0.173647 -0.984808
vn -0.000000 -0.342020 -0.939693
vn -0.000000 -0.342020 -0.939693
vn -0.000000 -0.500000 -0.866026
vn -0.000000 -0.500000 -0.866026
vn -0.000000 -0.642787 -0.766045
vn -0.000000 -0.642787 -0.766045
vn -0.000000 -0.766044 -0.642788
vn -0.000000 -0.766044 -0.642788
vn -0.000000 -0.866025 -0.500000
vn -0.000000 -0.866025 -0.500000
vn -0.000000 -0.939692 -0.342021
vn -0.000000 -0.939692 -0.342021
vn 0.000000 -0.984808 -0.173649
vn 0.000000 -0.984808 -0.173649
vn 0.000000 -1.000000 -0.000000
vn 0.000000 -1.000000 -0.000000
vn -0.000000 -0.984808 0.173648
vn -0.000000 -0.984808 0.173648
vn -0.000000 -0.939693 0.342020
vn -0.000000 -0.939693 0.342020
vn -0.000000 -0.866026 0.500000
vn -0.000000 -0.866026 0.500000
vn -0.000000 -0.766045 0.642787
vn -0.000000 -0.766045 0.642787
vn -0.000000 -0.642788 0.766044
vn -0.000000 -0.642788 0.766044
vn -0.000000 -0.500000 0.866025
vn -0.000000 -0.500000 0.866025
vn -0.000000 -0.342020 0.939693
vn -0.000000 -0.342020 0.939693
vn -0.000000 -0.173648 0.984808
vn -0.000000 -0.173648 0.984808
vn 0.000000 -0.000000 1.000000
vn 0.000000 -0.000000 1.000000
vn 0.000000 0.173648 0.984808
vn 0.000000 0.173648 0.984808
vn 0.000000 0.342020 0.939693
vn 0.000000 0.342020 0.939693
vn 0.000000 0.500000 0.866025
vn 0.000000 0.500000 0.866025
vn 0.000000 0.642788 0.766044
vn 0.000000 0.642788 0.766044
vn 0.000000 0.766044 0.642788
vn 0.000000 0.766044 0.642788
vn 0.000000 0.866025 0.500000
vn 0.000000 0.866025 0.500000
vn 0.000000 0.939693 0.342020
vn 0.000000 0.939693 0.342020
vn -0.000000 0.984808 0.173648
vn -0.000000 0.984808 0.173648
vn -0.000000 1.000000 -0.000001
vn -0.000000 1.000000 -0.000001
vn 0.866025 -0.469847 0.171010
vn 0.866025 -0.492404 0.086825
vn 0.866025 -0.492404 0.086825
vn 0.866025 -0.469847 0.171010
vn 0.866025 -0.433013 0.250000
vn 0.866025 -0.433013 0.250000
vn 0.866025 -0.383022 0.321394
vn 0.866026 -0.383022 0.321394
vn 0.866025 -0.321394 0.383022
vn 0.866025 -0.321394 0.383022
vn 0.866025 -0.250001 0.433013
vn 0.866025 -0.250001 0.433013
vn 0.866025 -0.171011 0.469847
vn 0.866025 -0.171011 0.469847
vn 0.866025 -0.086824 0.492404
vn 0.866025 -0.086824 0.492404
vn 0.866025 -0.000000 0.500001
vn 0.866025 -0.000000 0.500001
vn 0.866025 0.086824 0.492404
vn 0.866025 0.086824 0.492404
vn 0.866025 0.171010 0.469847
vn 0.866025 0.171010 0.469847
vn 0.866025 0.250000 0.433013
vn 0.866025 0.250000 0.433013
vn 0.866025 0.321394 0.383023
vn 0.866025 0.321394 0.383023
vn 0.866025 0.383022 0.321394
vn 0.866025 0.383022 0.321394
vn 0.866025 0.433013 0.250000
vn 0.866025 0.433013 0.250000
vn 0.866025 0.469847 0.171010
vn 0.866025 0.469847 0.171010
vn 0.866025 0.492404 0.086824
vn 0.866025 0.492404 0.086824
vn 0.866025 0.500000 0.000000
vn 0.866025 0.500000 0.000000
vn 0.866025 0.492404 -0.086824
vn 0.866025 0.492404 -0.086824
vn 0.866025 0.469847 -0.171010
vn 0.866025 0.469847 -0.171010
vn 0.866025 0.433013 -0.250000
vn 0.866025 0.433013 -0.250000
vn 0.866025 0.383022 -0.321394
vn 0.866025 0.383022 -0.321394
vn 0.866025 0.321394 -0.383022
vn 0.866025 0.321394 -0.383022
vn 0.866025 0.250000 -0.433013
vn 0.866025 0.250000 -0.433013
vn 0.866025 0.171010 -0.469846
vn 0.866025 0.171010 -0.469846
vn 0.866025 0.086824 -0.492404
vn 0.866025 0.086824 -0.492404
vn 0.866025 0.000000 -0.500000
vn 0.866025 0.000000 -0.500000
vn 0.866025 -0.086824 -0.492404
vn 0.866025 -0.086824 -0.492404
vn 0.866025 -0.171010 -0.469846
vn 0.866025 -0.171010 -0.469846
vn 0.866025 -0.250000 -0.433013
vn 0.866025 -0.250000 -0.433013
vn 0.866025 -0.321394 -0.383023
vn 0.866025 -0.321394 -0.383022
vn 0.866025 -0.383022 -0.321394
vn 0.866025 -0.383022 -0.321394
vn 0.866026 -0.433012 -0.250000
vn 0.866026 -0.433013 -0.250000
vn 0.866026 -0.469846 -0.171010
vn 0.866025 -0.469846 -0.171010
vn 0.866025 -0.492404 -0.086824
vn 0.866025 -0.492404 -0.086824
vn 0.866025 -0.500000 0.000001
vn 0.866025 -0.500000 0.000001
s 1
g pTorus1
usemtl initialShadingGroup
f 2/2/1 1/1/2 37/38/3 38/39/4
f 3/3/5 2/2/1 38/39/4 39/40/6
f 4/4/7 3/3/5 39/40/6 40/41/8
f 5/5/9 4/4/7 40/41/8 41/42/10
f 6/6/11 5/5/9 41/42/10 42/43/12
f 7/7/13 6/6/11 42/43/12 43/44/14
f 8/8/15 7/7/13 43/44/14 44/45/16
f 9/9/17 8/8/15 44/45/16 45/46/18
f 10/10/19 9/9/17 45/46/18 46/47/20
f 11/11/21 10/10/19 46/47/20 47/48/22
f 12/12/23 11/11/21 47/48/22 48/49/24
f 13/13/25 12/12/23 48/49/24 49/50/26
f 14/14/27 13/13/25 49/50/26 50/51/28
f 15/15/29 14/14/27 50/51/28 51/52/30
f 16/16/31 15/15/29 51/52/30 52/53/32
f 17/17/33 16/16/31 52/53/32 53/54/34
f 18/18/35 17/17/33 53/54/34 54/55/36
f 19/19/37 18/18/35 54/55/36 55/56/38
f 20/20/39 19/19/37 55/56/38 56/57/40
f 21/21/41 20/20/39 56/57/40 57/58/42
f 22/22/43 21/21/41 57/58/42 58/59/44
f 23/23/45 22/22/43 58/59/44 59/60/46
f 24/24/47 23/23/45 59/60/46 60/61/48
f 25/25/49 24/24/47 60/61/48 61/62/50
f 26/26/51 25/25/49 61/62/50 62/63/52
f 27/27/53 26/26/51 62/63/52 63/64/54
f 28/28/55 27/27/53 63/64/54 64/65/56
f 29/29/57 28/28/55 64/65/56 65/66/58
f 30/30/59 29/29/57 65/66/58 66/67/60
f 31/31/61 30/30/59 66/67/60 67/68/62
f 32/32/63 31/31/61 67/68/62 68/69/64
f 33/33/65 32/32/63 68/69/64 69/70/66
f 34/34/67 33/33/65 69/70/66 70/71/68
f 35/35/69 34/34/67 70/71/68 71/72/70
f 36/36/71 35/35/69 71/72/70 72/73/72
f 1/37/2 36/36/71 72/73/72 37/74/3
s 2
f 38/39/73 37/38/74 73/75/75 74/76/76
f 39/40/77 38/39/73 74/76/76 75/77/78
f 40/41/79 39/40/77 75/77/78 76/78/80
f 41/42/81 40/41/79 76/78/80 77/79/82
f 42/43/83 41/42/81 77/79/82 78/80/84
f 43/44/85 42/43/83 78/80/84 79/81/86
f 44/45/87 43/44/85 79/81/86 80/82/88
f 45/46/89 44/45/87 80/82/88 81/83/90
f 46/47/91 45/46/89 81/83/90 82/84/92
f 47/48/93 46/47/91 82/84/92 83/85/94
f 48/49/95 47/48/93 83/85/94 84/86/96
f 49/50/97 48/49/95 84/86/96 85/87/98
f 50/51/99 49/50/97 85/87/98 86/88/100
f 51/52/101 50/51/99 86/88/100 87/89/102
f 52/53/103 51/52/101 87/89/102 88/90/104
f 53/54/105 52/53/103 88/90/104 89/91/106
f 54/55/107 53/54/105 89/91/106 90/92/108
f 55/56/109 54/55/107 90/92/108 91/93/110
f 56/57/111 55/56/109 91/93/110 92/94/112
f 57/58/113 56/57/111 92/94/112 93/95/114
f 58/59/115 57/58/113 93/95/114 94/96/116
f 59/60/117 58/59/115 94/96/116 95/97/118
f 60/61/119 59/60/117 95/97/118 96/98/120
f 61/62/121 60/61/119 96/98/120 97/99/122
f 62/63/123 61/62/121 97/99/122 98/100/124
f 63/64/125 62/63/123 98/100/124 99/101/126
f 64/65/127 63/64/125 99/101/126 100/102/128
f 65/66/129 64/65/127 100/102/128 101/103/130
f 66/67/131 65/66/129 101/103/130 102/104/132
f 67/68/133 66/67/131 102/104/132 103/105/134
f 68/69/135 67/68/133 103/105/134 104/106/136
f 69/70/137 68/69/135 104/106/136 105/107/138
f 70/71/139 69/70/137 105/107/138 106/108/140
f 71/72/141 70/71/139 106/108/140 107/109/142
f 72/73/143 71/72/141 107/109/142 108/110/144
f 37/74/74 72/73/143 108/110/144 73/111/75
s 3
f 74/76/145 73/75/146 1/112/147 2/113/148
f 75/77/149 74/76/145 2/113/148 3/114/150
f 76/78/151 75/77/149 3/114/150 4/115/152
f 77/79/153 76/78/151 4/115/152 5/116/154
f 78/80/155 77/79/153 5/116/154 6/117/156
f 79/81/157 78/80/155 6/117/156 7/118/158
f 80/82/159 79/81/157 7/118/158 8/119/160
f 81/83/161 80/82/159 8/119/160 9/120/162
f 82/84/163 81/83/161 9/120/162 10/121/164
f 83/85/165 82/84/163 10/121/164 11/122/166
f 84/86/167 83/85/165 11/122/166 12/123/168
f 85/87/169 84/86/167 12/123/168 13/124/170
f 86/88/171 85/87/169 13/124/170 14/125/172
f 87/89/173 86/88/171 14/125/172 15/126/174
f 88/90/175 87/89/173 15/126/174 16/127/176
f 89/91/177 88/90/175 16/127/176 17/128/178
f 90/92/179 89/91/177 17/128/178 18/129/180
f 91/93/181 90/92/179 18/129/180 19/130/182
f 92/94/183 91/93/181 19/130/182 20/131/184
f 93/95/185 92/94/183 20/131/184 21/132/186
f 94/96/187 93/95/185 21/132/186 22/133/188
f 95/97/189 94/96/187 22/133/188 23/134/190
f 96/98/191 95/97/189 23/134/190 24/135/192
f 97/99/193 96/98/191 24/135/192 25/136/194
f 98/100/195 97/99/193 25/136/194 26/137/196
f 99/101/197 98/100/195 26/137/196 27/138/198
f 100/102/199 99/101/197 27/138/198 28/139/200
f 101/103/201 100/102/199 28/139/200 29/140/202
f 102/104/203 101/103/201 29/140/202 30/141/204
f 103/105/205 102/104/203 30/141/204 31/142/206
f 104/106/207 103/105/205 31/142/206 32/143/208
f 105/107/209 104/106/207 32/143/208 33/144/210
f 106/108/211 105/107/209 33/144/210 34/145/212
f 107/109/213 106/108/211 34/145/212 35/146/214
f 108/110/215 107/109/213 35/146/214 36/147/216
f 73/111/146 108/110/215 36/147/216 1/148/147
